<svg width="61" height="72" viewBox="0 0 61 72" fill="none" xmlns="http://www.w3.org/2000/svg">
<g clip-path="url(#clip0_490_288)">
<path d="M18.889 0.722751C18.5456 0.724963 18.2081 0.812681 17.907 0.977985C16.9184 1.52595 16.5558 2.79603 17.1036 3.78392L19.3355 7.81424C13.958 11.1412 10.3948 16.8243 10.3948 23.3106V24.5158C9.36191 23.3275 7.84387 22.5773 6.1477 22.5773C3.03988 22.5773 0.516602 25.1006 0.516602 28.2081V45.554C0.516602 48.6614 3.04012 51.1849 6.1477 51.1849C7.84387 51.1849 9.36191 50.4344 10.3946 49.2461V51.6759C10.3946 54.9517 13.0751 57.6321 16.351 57.6321H17.8622V65.3484C17.8622 68.4562 20.3857 70.9795 23.4933 70.9795C26.6009 70.9795 29.1242 68.456 29.1242 65.3484V57.6321H31.7389V65.3484C31.7389 68.4562 34.2624 70.9795 37.37 70.9795C40.4775 70.9795 43.0008 68.456 43.0008 65.3484V57.6321H44.5123C47.7879 57.6321 50.4685 54.9517 50.4685 51.6759V49.2461C51.5011 50.4344 53.0194 51.1849 54.7156 51.1849C57.8232 51.1849 60.3464 48.6614 60.3464 45.554V28.2081C60.3464 25.1006 57.8232 22.5773 54.7156 22.5773C53.0194 22.5773 51.5011 23.3275 50.4685 24.5158V23.5145V23.4571C50.4689 23.3962 50.4685 23.3474 50.4685 23.3106C50.4685 16.8255 46.8971 11.148 41.5214 7.8208L43.7597 3.78392C44.3072 2.79603 43.9449 1.52595 42.9563 0.977985C42.6552 0.812681 42.3177 0.724963 41.9743 0.722751C41.2442 0.71572 40.5277 1.10056 40.1504 1.78142L37.8099 6.00955C35.5214 5.1651 33.0314 4.7022 30.4318 4.7022C27.8344 4.7022 25.3397 5.16017 23.0532 6.00299L20.7129 1.78142C20.3354 1.10056 19.6191 0.716188 18.889 0.722751Z" fill="white"/>
<path d="M6.14754 24.0469C3.82863 24.0469 1.9834 25.8921 1.9834 28.211V45.5569C1.9834 47.8758 3.82863 49.721 6.14754 49.721C8.46645 49.721 10.3119 47.8758 10.3119 45.5569V28.211C10.3119 25.8921 8.46645 24.0469 6.14754 24.0469ZM54.7157 24.0469C52.3965 24.0469 50.5513 25.8921 50.5513 28.211V45.5569C50.5513 47.8758 52.3965 49.721 54.7157 49.721C57.0346 49.721 58.8798 47.8758 58.8798 45.5569V28.211C58.8798 25.8921 57.0346 24.0469 54.7157 24.0469Z" fill="#A4C639"/>
<path d="M23.4935 43.8398C21.1746 43.8398 19.3291 45.6851 19.3291 48.0042V65.3498C19.3291 67.6688 21.1746 69.514 23.4935 69.514C25.8124 69.514 27.6576 67.6688 27.6576 65.3498V48.0042C27.6576 45.6851 25.8124 43.8398 23.4935 43.8398ZM37.3701 43.8398C35.051 43.8398 33.2057 45.6851 33.2057 48.0042V65.3498C33.2057 67.6688 35.051 69.514 37.3701 69.514C39.689 69.514 41.5343 67.6688 41.5343 65.3498V48.0042C41.5343 45.6851 39.689 43.8398 37.3701 43.8398Z" fill="#A4C639"/>
<path d="M18.9015 2.19149C18.803 2.19267 18.7064 2.21897 18.6209 2.26789C18.324 2.43243 18.2265 2.77368 18.3913 3.07133L21.3249 8.37078C15.6812 11.3075 11.8688 16.8882 11.8613 23.2932H49.0016C48.9938 16.8882 45.1817 11.3073 39.538 8.37078L42.4714 3.07157C42.6364 2.77391 42.5387 2.43243 42.2417 2.26789C42.1562 2.21894 42.0597 2.19264 41.9612 2.19149C41.7502 2.18914 41.5508 2.29461 41.4383 2.49758L38.4664 7.85422C36.0355 6.7761 33.3088 6.17071 30.4313 6.17071C27.5539 6.17071 24.8274 6.77586 22.3963 7.85422L19.4244 2.49758C19.3737 2.40355 19.2981 2.32527 19.206 2.27128C19.1138 2.2173 19.0085 2.1897 18.9017 2.19149H18.9015ZM11.8613 24.7599V51.6779C11.8601 52.2678 11.9753 52.8521 12.2005 53.3974C12.4257 53.9426 12.7563 54.438 13.1735 54.8552C13.5906 55.2723 14.086 55.6029 14.6313 55.828C15.1765 56.0532 15.7609 56.1684 16.3508 56.1671H44.5121C45.102 56.1684 45.6864 56.0532 46.2317 55.828C46.777 55.6028 47.2724 55.2722 47.6895 54.8551C48.1067 54.4379 48.4373 53.9425 48.6625 53.3972C48.8876 52.852 49.0029 52.2676 49.0016 51.6777V24.7602H11.8613V24.7599Z" fill="#A4C639"/>
<path d="M21.8602 13.3945C21.0125 13.3945 20.3105 14.0963 20.3105 14.944C20.3105 15.792 21.0125 16.4937 21.8602 16.4937C22.7082 16.4937 23.4099 15.792 23.4099 14.944C23.4099 14.0963 22.7082 13.3945 21.8602 13.3945ZM39.0019 13.3945C38.154 13.3945 37.4523 14.0963 37.4523 14.944C37.4523 15.792 38.154 16.4937 39.0019 16.4937C39.8497 16.4937 40.5516 15.792 40.5516 14.944C40.5516 14.0963 39.8497 13.3945 39.0019 13.3945Z" fill="white"/>
</g>
<defs>
<clipPath id="clip0_490_288">
<rect width="60" height="70.5469" fill="white" transform="translate(0.516602 0.523438)"/>
</clipPath>
</defs>
</svg>
