<svg width="61" height="61" viewBox="0 0 61 61" fill="none" xmlns="http://www.w3.org/2000/svg">
<path d="M13.6566 0.796875H47.3766C54.6338 0.796875 60.5166 6.67969 60.5166 13.9369V47.6569C60.5166 54.9141 54.6338 60.7969 47.3766 60.7969H13.6566C6.39941 60.7969 0.516602 54.9141 0.516602 47.6569V13.9369C0.516602 6.67969 6.39941 0.796875 13.6566 0.796875Z" fill="url(#paint0_linear_2759_386)"/>
<path d="M19.7449 44.3478L19.7506 44.3497L17.6991 47.9028C16.9502 49.1998 15.2918 49.6442 13.9948 48.8954C12.698 48.1466 12.2534 46.4881 13.0022 45.1911L14.5134 42.5736L14.6585 42.3223C14.9175 41.9502 15.5566 41.3075 16.8352 41.4284C16.8352 41.4284 19.8438 41.7549 20.0616 43.3187C20.0616 43.3187 20.0911 43.8331 19.7449 44.3478ZM48.841 35.2728H42.4439C42.0082 35.2435 41.8181 35.0879 41.7431 34.9974L41.7384 34.9892L34.8907 23.1284L34.8818 23.1343L34.4712 22.5455C33.7981 21.5162 32.7293 24.1487 32.7293 24.1487C31.4531 27.0821 32.9105 30.417 33.4184 31.4251L42.9298 47.8993C43.6784 49.1961 45.3368 49.6407 46.6341 48.8916C47.9309 48.1428 48.3755 46.4844 47.6264 45.1873L45.2482 41.068C45.202 40.9681 45.1219 40.6972 45.6096 40.696H48.841C50.3386 40.696 51.5527 39.4819 51.5527 37.9843C51.5527 36.4866 50.3386 35.2726 48.841 35.2726V35.2728ZM36.4158 38.9591C36.4158 38.9591 36.7573 40.696 35.4361 40.696H11.7879C10.2902 40.696 9.07617 39.4819 9.07617 37.9843C9.07617 36.4866 10.2902 35.2726 11.7879 35.2726H17.8676C18.8491 35.2159 19.0816 34.6491 19.0816 34.6491L19.0873 34.6519L27.0232 20.9063L27.0209 20.9059C27.1655 20.6403 27.045 20.3893 27.0241 20.3497L24.4031 15.8101C23.6543 14.5133 24.0987 12.8546 25.3957 12.106C26.6927 11.3572 28.3512 11.8013 29.1 13.0984L30.3155 15.2037L31.5288 13.1021C32.2777 11.8053 33.9361 11.3607 35.2331 12.1098C36.5302 12.8586 36.9745 14.5168 36.2257 15.8138L25.1824 34.9412C25.1341 35.0577 25.1194 35.2405 25.4787 35.2726H32.0796L32.081 35.337C32.081 35.337 35.8962 35.3963 36.4158 38.9591Z" fill="white"/>
<defs>
<linearGradient id="paint0_linear_2759_386" x1="30.5166" y1="0.796875" x2="30.5166" y2="60.7969" gradientUnits="userSpaceOnUse">
<stop stop-color="#17C9FB"/>
<stop offset="1" stop-color="#1A74E8"/>
</linearGradient>
</defs>
</svg>
