<svg width="73" height="61" viewBox="0 0 73 61" fill="none" xmlns="http://www.w3.org/2000/svg">
<g clip-path="url(#clip0_490_294)">
<path d="M36.6578 0.796875C17.3226 0.796875 2.17445 25.3969 0.741211 46.1743C6.80882 56.7048 21.4406 60.6631 36.6584 60.6631C51.875 60.6631 66.5077 56.7048 72.5722 46.1741C71.1387 25.3969 55.9925 0.796875 36.6581 0.796875" fill="#B6DEFF"/>
<path d="M67.5198 41.2232C67.5198 41.2232 63.2493 31.9905 58.9088 26.604C54.5651 21.2153 49.2606 15.3477 46.1243 15.3477C42.9896 15.3477 34.2268 30.8626 30.2068 30.8626C26.186 30.8626 24.0964 23.8293 19.153 23.8293C14.2077 23.8293 6.35075 40.7896 6.35075 40.7896L5.81836 43.6648C5.81836 43.6648 8.54794 55.7665 37.104 55.7665C65.6612 55.7665 67.9434 43.8634 67.9434 43.8634L67.52 41.2229" fill="#66CC66"/>
<path d="M30.6541 37.484C26.2191 37.484 23.9456 33.1082 22.7129 30.4071C21.6045 27.9739 21.4126 24.1322 18.2676 24.0246C18.5766 23.902 18.8741 23.8296 19.1529 23.8296C24.0963 23.8296 26.1859 30.8629 30.2067 30.8629C34.2267 30.8629 42.9895 15.3477 46.1242 15.3477C46.7149 15.3477 47.3802 15.5561 48.1022 15.9268C47.5681 15.8564 46.8833 15.9054 46.3557 16.4347C45.3425 17.4482 36.1445 37.484 30.6541 37.484Z" fill="#17AD49"/>
</g>
<defs>
<clipPath id="clip0_490_294">
<rect width="72.1127" height="60" fill="white" transform="translate(0.516602 0.796875)"/>
</clipPath>
</defs>
</svg>
