<svg width="23" height="23" viewBox="0 0 23 23" fill="none" xmlns="http://www.w3.org/2000/svg">
<circle cx="11.5" cy="11.5" r="11.25" fill="#434343" stroke="white" stroke-width="0.5"/>
<g clip-path="url(#clip0_190_151)">
<path d="M16.5294 9.51683L7.90479 4.01074V18.0107L16.5259 12.4848C16.7768 12.3271 16.9837 12.1084 17.1272 11.849C17.2707 11.5897 17.3462 11.2982 17.3465 11.0018C17.3469 10.7054 17.2721 10.4137 17.1292 10.1541C16.9863 9.89438 16.7799 9.67514 16.5294 9.51683ZM15.8994 11.4972L9.07437 15.8722V6.14458L15.9035 10.5044C15.9877 10.5571 16.057 10.6304 16.105 10.7173C16.1529 10.8043 16.1779 10.9021 16.1775 11.0014C16.177 11.1007 16.1513 11.1983 16.1026 11.2848C16.054 11.3714 15.984 11.4441 15.8994 11.4961V11.4972Z" fill="white"/>
</g>
<defs>
<clipPath id="clip0_190_151">
<rect width="14" height="14" fill="white" transform="translate(5 4)"/>
</clipPath>
</defs>
</svg>
