<svg width="24" height="25" viewBox="0 0 24 25" fill="none" xmlns="http://www.w3.org/2000/svg">
<g clip-path="url(#clip0_184_51)">
<path d="M23.7068 22.6922L17.7378 16.7232C19.3644 14.7338 20.1642 12.1953 19.9716 9.63276C19.7791 7.07023 18.609 4.67973 16.7034 2.95572C14.7977 1.23171 12.3024 0.306088 9.73342 0.37032C7.16447 0.434552 4.71849 1.48372 2.9014 3.30081C1.08431 5.1179 0.0351379 7.56389 -0.029094 10.1328C-0.0933258 12.7018 0.832293 15.1972 2.5563 17.1028C4.28031 19.0084 6.67081 20.1785 9.23334 20.371C11.7959 20.5636 14.3344 19.7638 16.3238 18.1372L22.2928 24.1062C22.4814 24.2884 22.734 24.3892 22.9962 24.3869C23.2584 24.3846 23.5092 24.2794 23.6946 24.094C23.88 23.9086 23.9852 23.6578 23.9875 23.3956C23.9897 23.1334 23.8889 22.8808 23.7068 22.6922ZM9.99978 18.3992C8.41753 18.3992 6.87081 17.93 5.55522 17.051C4.23963 16.1719 3.21425 14.9225 2.60875 13.4607C2.00324 11.9989 1.84482 10.3903 2.1535 8.83847C2.46218 7.28663 3.22411 5.86116 4.34293 4.74234C5.46175 3.62352 6.88721 2.8616 8.43906 2.55291C9.99091 2.24423 11.5994 2.40266 13.0613 3.00816C14.5231 3.61366 15.7725 4.63904 16.6515 5.95463C17.5306 7.27023 17.9998 8.81695 17.9998 10.3992C17.9974 12.5202 17.1538 14.5536 15.654 16.0534C14.1542 17.5532 12.1208 18.3968 9.99978 18.3992Z" fill="white"/>
</g>
<defs>
<clipPath id="clip0_184_51">
<rect width="24" height="24" fill="white" transform="translate(0 0.398438)"/>
</clipPath>
</defs>
</svg>
