<svg width="24" height="25" viewBox="0 0 24 25" fill="none" xmlns="http://www.w3.org/2000/svg">
<path d="M23.2589 16.5986L20.6589 7.22761C20.1037 5.22303 18.894 3.46175 17.2222 2.2241C15.5504 0.986442 13.5127 0.343534 11.4334 0.397693C9.35404 0.451853 7.35257 1.19997 5.7475 2.52297C4.14243 3.84598 3.02601 5.66784 2.57592 7.69861L0.564915 16.7486C0.467608 17.1871 0.469982 17.6417 0.571861 18.0792C0.67374 18.5166 0.872525 18.9255 1.15355 19.2758C1.43457 19.6261 1.79067 19.9089 2.19556 20.1032C2.60045 20.2976 3.04381 20.3985 3.49292 20.3986H7.09992C7.32943 21.5289 7.94265 22.5451 8.83566 23.275C9.72867 24.0049 10.8466 24.4036 11.9999 24.4036C13.1533 24.4036 14.2712 24.0049 15.1642 23.275C16.0572 22.5451 16.6704 21.5289 16.8999 20.3986H20.3699C20.832 20.3984 21.2878 20.2914 21.7018 20.0861C22.1158 19.8807 22.4767 19.5825 22.7564 19.2147C23.0362 18.8468 23.2271 18.4194 23.3145 17.9656C23.4018 17.5118 23.3831 17.044 23.2599 16.5986H23.2589ZM11.9999 22.3986C11.3817 22.396 10.7793 22.2025 10.2752 21.8445C9.77115 21.4865 9.39 20.9815 9.18392 20.3986H14.8159C14.6098 20.9815 14.2287 21.4865 13.7246 21.8445C13.2205 22.2025 12.6182 22.396 11.9999 22.3986ZM21.1649 18.0036C21.0716 18.1273 20.9507 18.2274 20.8118 18.296C20.6729 18.3646 20.5198 18.3997 20.3649 18.3986H3.49292C3.34318 18.3986 3.19536 18.3649 3.06036 18.3001C2.92537 18.2353 2.80665 18.1411 2.71297 18.0242C2.61929 17.9074 2.55304 17.7711 2.5191 17.6252C2.48517 17.4794 2.48442 17.3278 2.51692 17.1816L4.52792 8.13161C4.88227 6.53782 5.75922 5.10821 7.01937 4.07006C8.27952 3.0319 9.85054 2.44478 11.4827 2.40202C13.1148 2.35927 14.7144 2.86333 16.0272 3.83408C17.34 4.80483 18.2906 6.18656 18.7279 7.75961L21.3279 17.1306C21.3704 17.2788 21.3777 17.4348 21.3494 17.5863C21.3212 17.7379 21.258 17.8807 21.1649 18.0036Z" fill="white"/>
</svg>
