<svg width="24" height="24" viewBox="0 0 24 24" fill="none" xmlns="http://www.w3.org/2000/svg">
<g clip-path="url(#clip0_188_124)">
<path d="M19.7647 9.45755L4.97974 0.0185547V24.0186L19.7587 14.5456C20.1889 14.2752 20.5436 13.9002 20.7896 13.4556C21.0356 13.011 21.165 12.5113 21.1656 12.0032C21.1662 11.4951 21.038 10.9951 20.793 10.55C20.5481 10.1048 20.1943 9.72896 19.7647 9.45755ZM18.6847 12.8526L6.98474 20.3526V3.67655L18.6917 11.1506C18.8361 11.2408 18.955 11.3665 19.0372 11.5156C19.1194 11.6646 19.1622 11.8323 19.1615 12.0025C19.1608 12.1728 19.1166 12.34 19.0332 12.4884C18.9498 12.6368 18.8298 12.7615 18.6847 12.8506V12.8526Z" fill="white"/>
</g>
<defs>
<clipPath id="clip0_188_124">
<rect width="24" height="24" fill="white"/>
</clipPath>
</defs>
</svg>
